# xmcd
#
# Track frame offsets: 
#        150
#        11603
#        19175
#        33383
#        42370
#        52276
#        65837
#        75151
#        82887
#        94668
#        105289
#        116434
#        126319
#        136074
#        148370
#        157698
#
# Disc length: 2238 seconds
#
# Revision: 1
# Processed by: cddbd v1.5.2PL0 Copyright (c) Steve Scherf et al.
# Submitted via: ExactAudioCopy v1.3
#
DISCID=c908bc10
DTITLE=Glen Campbell - Ballads and Bluegrass 
DYEAR=2016
DGENRE=Country
TTITLE0=Brown's ferry blues
TTITLE1=Lonesome jailhouse blues
TTITLE2=One hundred miles away from home
TTITLE3=This old white mule of mine
TTITLE4=Poor boy lookin' for a home
TTITLE5=Long black limousine [Alt. ver.]
TTITLE6=Billy Dolton - Winkie doll
TTITLE7=Billy Dolton - Girls
TTITLE8=The Fleas - Scratchin'
TTITLE9=The Fleas - Tears
TTITLE10=The Trophies - Desire
TTITLE11=The Trophies - Doggone it
TTITLE12=The Trophies - Peg o' my heart
TTITLE13=The Trophies - I laughed so hard I cried
TTITLE14=The Gee-Cees - Buzz saw
TTITLE15=The Crickets - Don't ever change
EXTD=
EXTT0=
EXTT1=
EXTT2=
EXTT3=
EXTT4=
EXTT5=
EXTT6=
EXTT7=
EXTT8=
EXTT9=
EXTT10=
EXTT11=
EXTT12=
EXTT13=
EXTT14=
EXTT15=
PLAYORDER=
